HIERARCHY
ROOT joint_0
{
	OFFSET 0.000000 0.000000 0.000000
	CHANNELS 6 Xposition Yposition Zposition Zrotation Yrotation Xrotation 
	JOINT joint_1
	{
		OFFSET -0.613770 -1.125488 108.300049
		CHANNELS 3 Zrotation Yrotation Xrotation
		JOINT joint_2
		{
			OFFSET -10.925537 -0.900513 98.259033
			CHANNELS 3 Zrotation Yrotation Xrotation
			JOINT joint_3
			{
				OFFSET -11.287842 0.313599 98.110962
				CHANNELS 3 Zrotation Yrotation Xrotation
				JOINT joint_4
				{
					OFFSET -2.124268 2.484680 136.491943
					CHANNELS 3 Zrotation Yrotation Xrotation
					JOINT joint_5
					{
						OFFSET 16.640869 1.801270 81.862061
						CHANNELS 3 Zrotation Yrotation Xrotation
						End Site
						{
							OFFSET 0.000000 0.000000 0.000000
						}
					}
				}
				JOINT joint_6
				{
					OFFSET 0.447998 -28.248108 77.258057
					CHANNELS 3 Zrotation Yrotation Xrotation
					JOINT joint_7
					{
						OFFSET 7.918701 -130.256348 -24.086060
						CHANNELS 3 Zrotation Yrotation Xrotation
						JOINT joint_8
						{
							OFFSET 62.431885 -29.384277 -258.572021
							CHANNELS 3 Zrotation Yrotation Xrotation
							JOINT joint_9
							{
								OFFSET 53.743164 -21.907532 -238.024963
								CHANNELS 3 Zrotation Yrotation Xrotation
								End Site
								{
									OFFSET 0.000000 0.000000 0.000000
								}
							}
						}
					}
				}
				JOINT joint_10
				{
					OFFSET -2.846924 31.052063 76.130981
					CHANNELS 3 Zrotation Yrotation Xrotation
					JOINT joint_11
					{
						OFFSET 9.073730 131.055603 -18.752930
						CHANNELS 3 Zrotation Yrotation Xrotation
						JOINT joint_12
						{
							OFFSET 52.981201 29.883301 -260.613037
							CHANNELS 3 Zrotation Yrotation Xrotation
							JOINT joint_13
							{
								OFFSET 62.237793 15.935547 -236.423035
								CHANNELS 3 Zrotation Yrotation Xrotation
								End Site
								{
									OFFSET 0.000000 0.000000 0.000000
								}
							}
						}
					}
				}
			}
		}
	}
	JOINT joint_14
	{
		OFFSET 22.046143 -72.816772 -98.122925
		CHANNELS 3 Zrotation Yrotation Xrotation
		JOINT joint_15
		{
			OFFSET -23.673828 -54.692932 -469.927032
			CHANNELS 3 Zrotation Yrotation Xrotation
			JOINT joint_16
			{
				OFFSET -34.875244 -46.505249 -395.890999
				CHANNELS 3 Zrotation Yrotation Xrotation
				JOINT joint_17
				{
					OFFSET 168.486328 14.224182 -74.182999
					CHANNELS 3 Zrotation Yrotation Xrotation
					End Site
					{
						OFFSET 0.000000 0.000000 0.000000
					}
				}
			}
		}
	}
	JOINT joint_18
	{
		OFFSET -1.731934 82.408569 -92.846924
		CHANNELS 3 Zrotation Yrotation Xrotation
		JOINT joint_19
		{
			OFFSET -6.908936 32.203369 -472.535034
			CHANNELS 3 Zrotation Yrotation Xrotation
			JOINT joint_20
			{
				OFFSET -13.963135 23.196533 -399.207993
				CHANNELS 3 Zrotation Yrotation Xrotation
				JOINT joint_21
				{
					OFFSET 168.417725 19.834229 -73.041004
					CHANNELS 3 Zrotation Yrotation Xrotation
					End Site
					{
						OFFSET 0.000000 0.000000 0.000000
					}
				}
			}
		}
	}
}
MOTION
Frames: 9
Frame Time: 0.016667
-2786.124023 962.499084 1054.192017 4.287258 -5.612556 2.506828 1.333517 7.765156 -1.782161 -0.543363 -1.087440 0.568647 -0.844356 1.593921 -0.121510 0.079795 -1.336534 -0.287119 0.000000 0.000000 0.000000 3.254445 2.039764 1.035077 -0.313336 2.640489 -0.051657 -0.299624 0.366459 -1.156582 0.000000 0.000000 0.000000 0.006950 -1.880407 -1.471588 -0.616071 -1.923544 -2.297467 0.419999 -0.128020 1.644784 0.000000 0.000000 0.000000 -1.079892 -22.159390 -3.727220 -5.956146 40.281963 -3.349487 -1.941352 -2.977063 -0.485169 0.000000 0.000000 0.000000 -1.173690 5.056888 -1.001193 -1.385007 13.427954 -2.014732 -2.204581 -6.847580 -0.126539 0.000000 0.000000 0.000000 
-2774.260254 960.224609 1055.990967 4.216040 -5.407949 2.435443 1.259389 7.028930 -1.495412 -0.160421 -1.003503 0.437491 -0.391897 1.496980 -0.152514 0.099675 -1.036561 -0.407945 0.000000 0.000000 0.000000 2.986916 2.302076 1.365055 -0.381937 2.836964 -0.252942 -0.297204 0.322804 -1.162991 0.000000 0.000000 0.000000 0.164877 -1.473131 -1.274997 -0.542809 -1.527658 -2.095140 0.177561 -0.659740 0.857730 0.000000 0.000000 0.000000 -0.884724 -21.585516 -3.522258 -5.372268 34.373707 -3.086716 -1.592914 -3.857412 -0.288693 0.000000 0.000000 0.000000 -1.458952 4.670494 -0.698386 -1.332070 15.099840 -2.157036 -2.232214 -6.470371 -0.175882 0.000000 0.000000 0.000000 
-2761.851318 957.599548 1057.797974 4.332483 -5.197721 2.370769 1.187790 6.235239 -1.267638 0.190230 -0.930432 0.340991 0.013801 1.392126 -0.183799 0.116393 -0.670632 -0.518996 0.000000 0.000000 0.000000 2.663123 2.601236 1.668529 -0.448086 3.063325 -0.425395 -0.270885 0.212059 -1.094827 0.000000 0.000000 0.000000 0.274986 -1.036139 -1.043415 -0.453585 -1.102251 -1.717776 -0.141704 -1.148060 -0.219457 0.000000 0.000000 0.000000 -0.532328 -20.484266 -3.418802 -4.515590 27.540726 -2.474034 -1.051198 -4.329215 -0.045312 0.000000 0.000000 0.000000 -1.861609 3.979744 -0.370142 -1.328537 17.319857 -2.338718 -2.330222 -5.869945 -0.277140 0.000000 0.000000 0.000000 
-2749.166016 954.530762 1058.906982 4.645148 -5.193468 2.374930 1.162433 5.706923 -1.269651 0.474184 -0.903552 0.391018 0.314360 1.307583 -0.195359 0.124573 -0.297733 -0.589592 0.000000 0.000000 0.000000 2.248015 2.856207 1.922888 -0.517707 3.230416 -0.632065 -0.223932 0.105122 -0.936287 0.000000 0.000000 0.000000 0.465357 -0.685777 -0.896359 -0.364107 -0.788301 -1.244529 -0.420347 -1.493805 -1.159926 0.000000 0.000000 0.000000 -0.321871 -19.117252 -3.333274 -3.808323 21.337476 -1.940594 -0.859871 -4.385991 0.031602 0.000000 0.000000 0.000000 -2.404754 3.026717 -0.019758 -1.413497 20.400185 -2.682652 -2.559778 -5.178359 -0.437219 0.000000 0.000000 0.000000 
-2736.306152 950.989441 1059.274048 5.123503 -5.447331 2.278456 1.170923 5.451499 -1.127252 0.719094 -0.879005 0.398074 0.581712 1.263164 -0.187676 0.122855 0.081184 -0.614091 0.000000 0.000000 0.000000 1.705123 3.052505 2.155123 -0.612960 3.314011 -0.967435 -0.139411 0.005908 -0.610995 0.000000 0.000000 0.000000 0.828164 -0.503120 -0.911780 -0.282013 -0.687402 -0.680201 -0.612648 -1.570924 -1.834224 0.000000 0.000000 0.000000 -0.354146 -17.650578 -3.037192 -3.479454 16.458329 -1.489879 -0.970808 -5.187863 0.054736 0.000000 0.000000 0.000000 -3.124599 1.711372 0.579704 -1.570023 24.644175 -3.305794 -2.933684 -4.243241 -0.672971 0.000000 0.000000 0.000000 
-2723.167725 947.005554 1058.942017 5.726570 -5.855996 1.996755 1.170041 5.348957 -0.680604 0.941678 -0.845556 0.258949 0.855669 1.243147 -0.162732 0.110273 0.462456 -0.589621 0.000000 0.000000 0.000000 1.077708 3.205097 2.345466 -0.716661 3.339596 -1.351420 -0.033730 -0.095731 -0.192190 0.000000 0.000000 0.000000 1.281294 -0.417044 -1.013397 -0.198193 -0.709811 -0.027262 -0.761859 -1.501935 -2.376817 0.000000 0.000000 0.000000 -0.495463 -16.086902 -2.431488 -3.343489 12.475031 -1.094123 -1.161754 -6.505580 0.091863 0.000000 0.000000 0.000000 -3.992553 0.153363 1.497966 -1.819306 29.571172 -4.148995 -3.488756 -2.743663 -1.030547 0.000000 0.000000 0.000000 
-2709.717041 942.579590 1057.332031 6.269502 -6.324486 1.661678 1.161586 5.395318 -0.251954 1.169649 -0.825845 0.117928 1.138101 1.227351 -0.116030 0.085256 0.778263 -0.502651 0.000000 0.000000 0.000000 0.461694 3.277531 2.404464 -0.776982 3.294074 -1.592255 0.041406 -0.152688 0.114259 0.000000 0.000000 0.000000 1.691474 -0.309739 -1.091568 -0.096796 -0.702594 0.641604 -0.885504 -1.582138 -2.770552 0.000000 0.000000 0.000000 -0.613846 -14.734567 -1.535507 -3.287322 9.859089 -1.014819 -1.378652 -7.156811 0.062547 0.000000 0.000000 0.000000 -4.908541 -1.356086 2.580822 -2.170431 34.413477 -5.135744 -4.287594 -0.714195 -1.530212 0.000000 0.000000 0.000000 
-2695.392334 937.406982 1053.927979 6.678261 -6.959430 1.313415 1.153578 5.657677 0.071087 1.443430 -0.802878 -0.011292 1.470136 1.204146 -0.041281 0.039876 1.024125 -0.312414 0.000000 0.000000 0.000000 -0.199244 3.289849 2.219178 -0.750660 3.194617 -1.510855 0.066615 -0.135915 0.233321 0.000000 0.000000 0.000000 2.017930 -0.145767 -1.106372 0.035867 -0.620787 1.346335 -0.982632 -1.918028 -2.978326 0.000000 0.000000 0.000000 -0.688298 -13.538283 -0.192595 -3.319087 9.085381 -1.429612 -1.615107 -6.828622 -0.059680 0.000000 0.000000 0.000000 -5.929286 -2.568064 3.885878 -2.705016 38.934532 -6.407677 -5.584664 2.000632 -2.287625 0.000000 0.000000 0.000000 
-2680.754395 931.792419 1049.244995 7.006677 -7.642858 0.863013 1.106465 6.049229 0.489857 1.751874 -0.780361 -0.194966 1.854052 1.183827 0.046093 -0.015100 1.195828 -0.070390 0.000000 0.000000 0.000000 -0.850750 3.222342 1.900800 -0.680061 3.023096 -1.290515 0.061762 -0.068650 0.241789 0.000000 0.000000 0.000000 2.293640 0.040817 -1.115504 0.185937 -0.510380 2.091803 -1.062121 -2.426466 -3.051629 0.000000 0.000000 0.000000 -0.766283 -12.610239 1.496324 -3.478129 9.814310 -2.090097 -1.859814 -6.183593 -0.213208 0.000000 0.000000 0.000000 -7.000100 -3.730303 5.435550 -3.331608 43.330973 -7.844214 -7.363639 5.398963 -3.294327 0.000000 0.000000 0.000000 
